<svg xmlns="http://www.w3.org/2000/svg" width="27.017" height="19.017" viewBox="24.983 26.983 27.017 19.017"><g data-name="Group 1"><path d="M26.5 27h24a1.5 1.5 0 0 1 1.5 1.5 1.5 1.5 0 0 1-1.5 1.5h-24a1.5 1.5 0 0 1-1.5-1.5 1.5 1.5 0 0 1 1.5-1.5z" fill="#fff" fill-rule="evenodd" data-name="Rectangle 66"/><path d="M26.5 43h24a1.5 1.5 0 0 1 1.5 1.5 1.5 1.5 0 0 1-1.5 1.5h-24a1.5 1.5 0 0 1-1.5-1.5 1.5 1.5 0 0 1 1.5-1.5z" fill="#fff" fill-rule="evenodd" data-name="Rectangle 68"/><path d="M26.5 35h15a1.5 1.5 0 0 1 1.5 1.5 1.5 1.5 0 0 1-1.5 1.5h-15a1.5 1.5 0 0 1-1.5-1.5 1.5 1.5 0 0 1 1.5-1.5z" fill="#fff" fill-rule="evenodd" data-name="Rectangle 67"/></g></svg>