<svg xmlns="http://www.w3.org/2000/svg" width="19.683" height="20.517" viewBox="1189.617 2600.867 19.683 20.517"><g data-name="CompositeLayer"><path d="m1190.042 2618.837 16.672-17.264a1.5 1.5 0 0 1 2.12-.037 1.5 1.5 0 0 1 .038 2.12l-16.672 17.265a1.5 1.5 0 0 1-2.121.037 1.5 1.5 0 0 1-.037-2.121z" fill="#fff" fill-rule="evenodd" data-name="Rectangle 66"/><path d="m1192.2 2601.326 16.672 17.264a1.5 1.5 0 0 1-.037 2.121 1.5 1.5 0 0 1-2.121-.037l-16.672-17.264a1.5 1.5 0 0 1 .037-2.121 1.5 1.5 0 0 1 2.121.037z" fill="#fff" fill-rule="evenodd" data-name="Rectangle 68"/></g></svg>